<svg width="25" height="25" viewBox="0 0 25 25" fill="none" xmlns="http://www.w3.org/2000/svg">
<path d="M25 12.5C25 19.4036 19.4036 25 12.5 25C5.59644 25 0 19.4036 0 12.5C0 5.59644 5.59644 0 12.5 0C19.4036 0 25 5.59644 25 12.5Z" fill="url(#paint0_linear_121_474)"/>
<g clip-path="url(#clip0_121_474)">
<path d="M19.3883 12.3388C19.3883 16.0537 16.3533 19.0653 12.6087 19.0653C11.4203 19.0653 10.3041 18.7614 9.33232 18.2291L5.5791 19.421L6.80256 15.811C6.18565 14.7979 5.83037 13.6082 5.83037 12.3383C5.83082 8.6234 8.86491 5.61182 12.6096 5.61182C16.3538 5.61272 19.3883 8.62385 19.3883 12.3388ZM12.6082 6.68442C9.46561 6.68442 6.90928 9.22139 6.90928 12.3401C6.90928 13.5776 7.31274 14.7231 7.99494 15.6552L7.28347 17.7549L9.47281 17.0592C10.3734 17.65 11.451 17.9941 12.6082 17.9941C15.7508 17.9941 18.3081 15.4575 18.3081 12.3388C18.309 9.22139 15.7513 6.68442 12.6082 6.68442ZM16.0323 13.8883C15.9899 13.8203 15.8792 13.7788 15.7135 13.696C15.5482 13.6131 14.73 13.2146 14.5783 13.1606C14.4252 13.1052 14.3144 13.0773 14.2036 13.2425C14.0942 13.4078 13.7754 13.7788 13.6777 13.8896C13.5809 13.9999 13.484 14.0139 13.3179 13.9324C13.1517 13.8486 12.6159 13.6757 11.981 13.1142C11.487 12.6765 11.1533 12.1375 11.057 11.9722C10.9592 11.8074 11.047 11.7183 11.1294 11.6363C11.2037 11.562 11.2956 11.4436 11.3789 11.3468C11.4622 11.2509 11.4897 11.1829 11.5451 11.0726C11.5996 10.9622 11.5721 10.8663 11.5311 10.783C11.4897 10.7002 11.1578 9.88963 11.0187 9.55956C10.8804 9.22994 10.7422 9.28443 10.6449 9.28443C10.5481 9.28443 10.4373 9.27092 10.3266 9.27092C10.2158 9.27092 10.0357 9.311 9.88393 9.47626C9.73218 9.64151 9.3026 10.04 9.3026 10.8515C9.3026 11.6638 9.89744 12.4469 9.98074 12.5567C10.0645 12.6662 11.1308 14.3858 12.8199 15.046C14.5098 15.7057 14.5098 15.4855 14.8142 15.4575C15.1195 15.4296 15.7977 15.059 15.9355 14.6745C16.0742 14.2881 16.0742 13.9572 16.0323 13.8883Z" fill="white"/>
</g>
<defs>
<linearGradient id="paint0_linear_121_474" x1="12.5" y1="0" x2="12.5" y2="25" gradientUnits="userSpaceOnUse">
<stop stop-color="#00E676"/>
<stop offset="1" stop-color="#00A454"/>
</linearGradient>
<clipPath id="clip0_121_474">
<rect width="13.8092" height="13.8092" fill="white" transform="translate(5.5791 5.61182)"/>
</clipPath>
</defs>
</svg>
