<?xml version="1.0" encoding="UTF-8"?>
<svg xmlns="http://www.w3.org/2000/svg" width="52" height="65" viewBox="0 0 52 65" fill="none">
  <path fill-rule="evenodd" clip-rule="evenodd" d="M10.0538 0C7.44892 0 5.16565 1.7059 4.36476 4.10712H1.20355C0.53873 4.10712 0 4.64585 0 5.31067V63.4949C0 64.1597 0.53873 64.6984 1.20355 64.6984H33.8123C34.1958 64.6984 34.5308 64.5267 34.7517 64.2578L46.0834 52.9258C46.3522 52.7055 46.5247 52.3705 46.5247 51.9949V5.31121C46.5247 5.31085 46.5247 5.31067 46.3482 5.31067H46.5247C46.5247 4.64585 45.986 4.10712 45.3211 4.10712H15.744C14.9512 1.72392 12.7007 0 10.0538 0ZM13.1026 4.10712H7.00547C7.64553 3.08196 8.787 2.4071 10.0538 2.4071C11.3392 2.4071 12.4688 3.08717 13.1026 4.10712ZM2.4071 62.2913V6.51422H13.6419V13.5249C13.6419 14.371 12.9535 15.0594 12.1074 15.0594C11.2614 15.0594 10.5729 14.371 10.5729 13.5249V9.41779C10.5729 8.75297 10.0342 8.21424 9.36933 8.21424C8.70451 8.21424 8.16578 8.75297 8.16578 9.41779V13.5249C8.16578 15.6984 9.9339 17.4665 12.1074 17.4665C14.2809 17.4665 16.049 15.6984 16.049 13.5249V6.51422H44.1176V50.7914H33.8212C33.1564 50.7914 32.6177 51.3301 32.6177 51.9949V62.2913H2.4071ZM35.0248 60.5803V53.1985H42.4064L35.0248 60.5803ZM9.41862 45.2434C8.7538 45.2434 8.21507 45.7822 8.21507 46.447C8.21507 47.1118 8.7538 47.6505 9.41862 47.6505H37.1077C37.7725 47.6505 38.3113 47.1118 38.3113 46.447C38.3113 45.7822 37.7725 45.2434 37.1077 45.2434H9.41862ZM9.41862 39.0844C8.7538 39.0844 8.21507 39.6231 8.21507 40.2879C8.21507 40.9527 8.7538 41.4915 9.41862 41.4915H37.1077C37.7725 41.4915 38.3113 40.9527 38.3113 40.2879C38.3113 39.6231 37.7725 39.0844 37.1077 39.0844H9.41862ZM9.41862 32.9244C8.7538 32.9244 8.21507 33.4632 8.21507 34.128C8.21507 34.7928 8.7538 35.3315 9.41862 35.3315H37.1077C37.7725 35.3315 38.3113 34.7928 38.3113 34.128C38.3113 33.4632 37.7725 32.9244 37.1077 32.9244H9.41862ZM9.41862 26.762C8.7538 26.762 8.21507 27.3007 8.21507 27.9655C8.21507 28.6303 8.7538 29.1691 9.41862 29.1691H37.1077C37.7725 29.1691 38.3113 28.6303 38.3113 27.9655C38.3113 27.3007 37.7725 26.762 37.1077 26.762H9.41862ZM9.41862 20.6025C8.7538 20.6025 8.21507 21.1412 8.21507 21.806C8.21507 22.4708 8.7538 23.0096 9.41862 23.0096H37.1077C37.7725 23.0096 38.3113 22.4708 38.3113 21.806C38.3113 21.1412 37.7725 20.6025 37.1077 20.6025H9.41862ZM49.4275 4.10435C48.7626 4.10435 48.2239 4.64308 48.2239 5.3079C48.2239 5.97272 48.7626 6.51145 49.4275 6.51145H49.5929V62.2885H38.8075C38.1427 62.2885 37.604 62.8273 37.604 63.4921C37.604 64.1569 38.1427 64.6957 38.8075 64.6957H50.7965C51.4613 64.6957 52 64.1569 52 63.4921V5.3079C52 4.64308 51.4613 4.10435 50.7965 4.10435H49.4275Z" fill="#52A7D8"></path>
</svg>
