<?xml version="1.0" encoding="UTF-8"?>
<svg xmlns="http://www.w3.org/2000/svg" width="67" height="61" viewBox="0 0 67 61" fill="none">
  <path d="M45.7311 32.1443L36.7491 26.6254C36.6397 26.5581 36.5138 26.5124 36.3868 26.4925L33.5747 25.9964C33.0545 25.9044 32.5436 26.2623 32.4519 26.7825C32.3601 27.3027 32.7177 27.8136 33.2379 27.9054L35.8915 28.3736L44.7164 33.7961C45.1472 34.0608 45.7381 33.9322 46.024 33.5162C46.3308 33.0696 46.1922 32.4279 45.7311 32.1443Z" fill="#52A7D8"></path>
  <path d="M66.1975 32.4547C65.8318 32.0635 65.2186 32.0429 64.8275 32.4083L60.8982 36.0805L42.894 18.316L60.9951 1.67631C61.3856 1.31025 61.4055 0.696874 61.0395 0.306392C60.6736 -0.0840893 60.0601 -0.103988 59.6696 0.261943L40.833 17.5909C40.4374 17.9616 40.4291 18.6072 40.815 18.9881L42.4076 20.5592L41.8993 21.0081L31.2546 20.0914C31.0903 20.0775 30.9197 20.1058 30.7698 20.175L22.3356 24.0163C22.3111 24.0099 22.2865 24.0037 22.2611 23.9992L17.4097 23.1431L17.802 22.1402C17.9959 21.6443 17.7536 21.0848 17.2593 20.8873L1.75163 14.6843C1.25442 14.4851 0.690536 14.7272 0.491807 15.2242C0.292948 15.7212 0.534706 16.2853 1.03179 16.4841L15.6462 22.3299L7.03386 44.3386L1.7152 42.4548C1.21049 42.2763 0.656683 42.5403 0.477981 43.045C0.299279 43.5495 0.56352 44.1035 1.0681 44.2822L7.27109 46.4791C7.75797 46.6516 8.30919 46.3992 8.4972 45.9185L9.9365 42.2403L13.7078 44.3538L13.2919 45.028C12.1134 46.9381 12.7084 49.4511 14.6187 50.6298C15.6288 51.2531 16.8829 51.4009 18.0117 51.0355C18.1927 52.2118 18.884 53.2616 19.8977 53.887C20.9078 54.5103 22.1617 54.6581 23.2907 54.2927C23.4718 55.469 24.1628 56.5186 25.1765 57.1442C26.1898 57.7694 27.4372 57.9166 28.5698 57.5511C28.7512 58.7269 29.4421 59.7761 30.4555 60.4014C31.9284 61.3101 33.878 61.1743 35.2056 60.0615C35.5403 59.781 35.8283 59.4462 36.0576 59.0746L36.7187 58.0032L37.2631 58.3376C38.7379 59.2437 40.687 59.1042 42.0126 57.989C42.3467 57.7078 42.6341 57.3725 42.8627 57.0005C43.317 56.261 43.505 55.4322 43.4554 54.6254C43.7632 54.6995 44.0782 54.7393 44.396 54.7393C45.8037 54.7393 47.1352 53.9969 47.8719 52.7981C48.3156 52.0758 48.5183 51.2523 48.4669 50.4234C48.7739 50.4971 49.0883 50.5366 49.4051 50.5366C50.8128 50.5366 52.1444 49.7943 52.881 48.5954C53.3251 47.8726 53.5277 47.0486 53.4758 46.2191C53.7862 46.293 54.1014 46.3316 54.4151 46.3316C55.784 46.3316 57.1225 45.6424 57.8902 44.393C59.0652 42.4806 58.4654 39.9688 56.5529 38.7937L55.8888 38.3857L58.1163 36.0583L60.1998 38.1141C60.5652 38.4744 61.1675 38.4824 61.5424 38.1323L66.1515 33.8247C66.5424 33.4592 66.5631 32.8458 66.1975 32.4547ZM18.5709 48.2851C17.9534 49.2856 16.6371 49.5972 15.6365 48.9801C14.6358 48.3627 14.3242 47.0464 14.9414 46.0458L20.3702 37.2476C20.9761 36.2655 22.2762 35.9444 23.269 36.5309C24.2962 37.1382 24.5797 38.5465 23.963 39.5463L18.5709 48.2851ZM23.8496 51.5423C23.2324 52.5428 21.916 52.8545 20.9155 52.2373C19.927 51.6273 19.6095 50.293 20.2204 49.303L24.5633 42.2644C25.1692 41.2825 26.4693 40.9613 27.462 41.5478C28.4893 42.1551 28.7728 43.5634 28.1559 44.5631L23.8496 51.5423ZM29.129 54.7995C28.8298 55.2841 28.3597 55.6235 27.8056 55.7547C27.2512 55.8861 26.6791 55.7935 26.1945 55.4945C25.2061 54.8845 24.8886 53.5501 25.4996 52.5602L28.7568 47.2812C29.3626 46.2992 30.6629 45.9781 31.6555 46.5646C32.6828 47.1719 32.9663 48.5802 32.3495 49.5799L29.129 54.7995ZM36.5427 54.597L34.4079 58.0568C33.7979 59.0453 32.4636 59.3625 31.4735 58.7517C30.4851 58.1418 30.1678 56.8073 30.7786 55.8174L32.95 52.2982C33.5559 51.3164 34.8561 50.9948 35.8487 51.5817C36.876 52.1888 37.1595 53.5973 36.5427 54.597ZM54.1989 37.3473L49.3945 34.3952C48.949 34.1214 48.3351 34.268 48.0614 34.7136C47.7876 35.1591 47.9343 35.773 48.3798 36.0466L55.5378 40.4449C56.5395 41.0605 56.8537 42.3761 56.2383 43.3779C55.6227 44.3796 54.3069 44.6938 53.3052 44.0784L45.6282 39.3611C45.1722 39.0807 44.5753 39.2235 44.2951 39.6795C44.015 40.1355 44.1575 40.7324 44.6135 41.0126L50.5289 44.6473C51.5185 45.2554 51.8383 46.5893 51.2294 47.5803C50.6213 48.57 49.2874 48.8896 48.2963 48.2808L42.9356 44.9868C42.4794 44.7065 41.8826 44.8492 41.6025 45.3052C41.3223 45.7611 41.4649 46.3581 41.9208 46.6382L45.5199 48.8497C46.5095 49.4579 46.8294 50.7915 46.2204 51.7827C45.6123 52.7722 44.2785 53.0922 43.2874 52.4832C43.2874 52.4832 40.1222 50.5402 40.0926 50.526C39.6501 50.3123 39.1089 50.4644 38.8464 50.8918C38.5662 51.3478 38.7087 51.9448 39.1647 52.2249L40.511 53.0521C41.5127 53.6677 41.8268 54.9833 41.2113 55.9851C40.6033 56.9748 39.2694 57.2944 38.2783 56.6856L37.7372 56.353L38.1929 55.6143C38.7755 54.67 38.9563 53.5071 38.6888 52.4238C38.425 51.3546 37.7668 50.4628 36.8358 49.9125C36.1094 49.4832 35.2967 49.3093 34.5054 49.3627C34.654 48.7244 34.6548 48.0517 34.4956 47.4068C34.2318 46.3377 33.5736 45.4459 32.6426 44.8955C31.9161 44.4662 31.1035 44.2923 30.3122 44.3456C30.7119 42.6286 29.9761 40.7813 28.4494 39.8786C27.7229 39.4493 26.9103 39.2754 26.119 39.3287C26.5187 37.6117 25.7829 35.7643 24.2561 34.8616C22.3607 33.7412 19.8779 34.3549 18.7214 36.229L14.7275 42.702L10.6498 40.4178L16.6889 24.9843L19.9771 25.5646C19.0419 26.7263 18.7789 28.3617 19.4379 29.809C20.1199 31.3063 21.6015 32.1924 23.1487 32.1922C23.7122 32.1922 24.2844 32.0746 24.8298 31.8263L30.5059 29.241C30.9866 29.0221 31.2052 28.4379 30.9862 27.9573C30.7673 27.4767 30.1831 27.2578 29.7025 27.477L24.0263 30.0621C22.9565 30.5495 21.6893 30.0755 21.2019 29.0054C20.7147 27.9354 21.1886 26.6685 22.2586 26.1811L31.3415 22.0444L42.1461 22.9748C42.1738 22.9773 42.2016 22.9784 42.2293 22.9784C42.4644 22.9784 42.6928 22.8928 42.8707 22.7359L43.7904 21.9238L56.7358 34.6964L54.1989 37.3473Z" fill="#52A7D8"></path>
</svg>
