<?xml version="1.0" encoding="UTF-8"?>
<svg xmlns="http://www.w3.org/2000/svg" width="62" height="62" viewBox="0 0 62 62" fill="none">
  <path d="M55.9453 5.32812H50.1731V3.63281C50.1731 1.62968 48.5435 0 46.5403 0C44.5372 0 42.9075 1.62968 42.9075 3.63281V5.32812H22.5638V3.63281C22.5638 1.62968 20.9341 0 18.9309 0C16.9278 0 15.2981 1.62968 15.2981 3.63281V5.37293C15.1952 5.34447 15.0873 5.32812 14.9753 5.32812H10.1504C6.81189 5.32812 4.09575 8.04426 4.09575 11.3828V32.0091C4.09575 32.6779 4.63801 33.22 5.30669 33.22C5.97537 33.22 6.51763 32.6779 6.51763 32.0091V17.8008H50.1731C50.8418 17.8008 51.3841 17.2586 51.3841 16.5898C51.3841 15.921 50.8418 15.3789 50.1731 15.3789H6.51763V11.3828C6.51763 9.37968 8.14731 7.75 10.1504 7.75H14.9753C15.0873 7.75 15.1952 7.73353 15.2981 7.7052V9.26367C15.2981 11.2668 16.9278 12.8965 18.9309 12.8965C20.9341 12.8965 22.5638 11.2668 22.5638 9.26367V7.75H42.9075V9.26367C42.9075 11.2668 44.5372 12.8965 46.5403 12.8965C48.5435 12.8965 50.1731 11.2668 50.1731 9.26367V7.75H55.9453C57.9484 7.75 59.5781 9.37968 59.5781 11.3828V57.3977C59.5781 58.5999 58.6001 59.5781 57.3977 59.5781C56.1954 59.5781 55.2173 58.5999 55.2173 57.3977V54.2651C55.2173 53.5963 54.675 53.0542 54.0064 53.0542H39.9206C39.2519 53.0542 38.7097 53.5963 38.7097 54.2651C38.7097 54.9339 39.2519 55.4761 39.9206 55.4761H52.7954V57.3977C52.7954 58.1861 52.995 58.9287 53.3458 59.5781H4.60156C3.39971 59.5781 2.42188 58.6003 2.42188 57.3984V55.4761H29.5257C30.1944 55.4761 30.7366 54.9339 30.7366 54.2651C30.7366 53.5963 30.1944 53.0542 29.5257 53.0542H17.4265C19.5425 51.2319 20.8861 48.5363 20.8861 45.5312C20.8861 40.056 16.4317 35.6016 10.9564 35.6016C5.48119 35.6016 1.02675 40.056 1.02675 45.5312C1.02675 48.5363 2.37041 51.2319 4.4864 53.0542H1.21094C0.542258 53.0542 0 53.5963 0 54.2651V57.3984C0 59.9357 2.06429 62 4.60156 62H57.3977C59.9354 62 62 59.9355 62 57.3977V11.3828C62 8.04426 59.2839 5.32812 55.9453 5.32812ZM20.1419 9.26367C20.1419 9.93138 19.5987 10.4746 18.9309 10.4746C18.2632 10.4746 17.72 9.93138 17.72 9.26367V3.63281C17.72 2.9651 18.2632 2.42188 18.9309 2.42188C19.5987 2.42188 20.1419 2.9651 20.1419 3.63281V9.26367ZM47.7513 9.26367C47.7513 9.93138 47.208 10.4746 46.5403 10.4746C45.8726 10.4746 45.3294 9.93138 45.3294 9.26367V3.63281C45.3294 2.9651 45.8726 2.42188 46.5403 2.42188C47.208 2.42188 47.7513 2.9651 47.7513 3.63281V9.26367ZM3.44863 45.5312C3.44863 41.3914 6.81661 38.0234 10.9564 38.0234C15.0963 38.0234 18.4643 41.3914 18.4643 45.5312C18.4643 49.6711 15.0963 53.0391 10.9564 53.0391C6.81661 53.0391 3.44863 49.6711 3.44863 45.5312Z" fill="#52A7D8"></path>
  <path d="M56.7095 15.7337C56.4844 15.5085 56.172 15.3789 55.8535 15.3789C55.5349 15.3789 55.2226 15.5085 54.9974 15.7337C54.7721 15.9589 54.6426 16.2713 54.6426 16.5898C54.6426 16.9083 54.772 17.2207 54.9974 17.446C55.2227 17.6712 55.5349 17.8008 55.8535 17.8008C56.172 17.8008 56.4844 17.6712 56.7095 17.446C56.9347 17.2207 57.0644 16.9083 57.0644 16.5898C57.0644 16.2713 56.9349 15.9589 56.7095 15.7337Z" fill="#52A7D8"></path>
  <path d="M36.1647 53.4082C35.9396 53.183 35.6271 53.0546 35.3087 53.0546C34.9902 53.0546 34.6778 53.183 34.4525 53.4082C34.2273 53.6347 34.0977 53.9459 34.0977 54.2644C34.0977 54.5841 34.2272 54.8953 34.4525 55.1217C34.6778 55.347 34.9902 55.4753 35.3087 55.4753C35.6271 55.4753 35.9396 55.347 36.1647 55.1217C36.3899 54.8953 36.5196 54.5828 36.5196 54.2644C36.5196 53.9459 36.39 53.6347 36.1647 53.4082Z" fill="#52A7D8"></path>
  <path d="M27.3967 36.8125C24.8594 36.8125 22.7951 38.8768 22.7951 41.414C22.7951 43.9513 24.8594 46.0156 27.3967 46.0156C29.934 46.0156 31.9983 43.9513 31.9983 41.414C31.9983 38.8768 29.934 36.8125 27.3967 36.8125ZM27.3967 43.5937C26.1949 43.5937 25.217 42.6159 25.217 41.414C25.217 40.2122 26.1949 39.2344 27.3967 39.2344C28.5986 39.2344 29.5764 40.2122 29.5764 41.414C29.5764 42.6159 28.5986 43.5937 27.3967 43.5937Z" fill="#52A7D8"></path>
  <path d="M38.6988 36.8125C36.1615 36.8125 34.0972 38.8768 34.0972 41.4141C34.0972 43.9514 36.1615 46.0156 38.6988 46.0156C41.2361 46.0156 43.3003 43.9514 43.3003 41.4141C43.3003 38.8768 41.2361 36.8125 38.6988 36.8125ZM38.6988 43.5938C37.4969 43.5938 36.5191 42.6159 36.5191 41.4141C36.5191 40.2122 37.4969 39.2344 38.6988 39.2344C39.9006 39.2344 40.8785 40.2122 40.8785 41.4141C40.8785 42.6159 39.9006 43.5938 38.6988 43.5938Z" fill="#52A7D8"></path>
  <path d="M50.0011 36.8125C47.4639 36.8125 45.3996 38.8768 45.3996 41.4141C45.3996 43.9514 47.4639 46.0156 50.0011 46.0156C52.5384 46.0156 54.6027 43.9514 54.6027 41.4141C54.6027 38.8768 52.5384 36.8125 50.0011 36.8125ZM50.0011 43.5938C48.7993 43.5938 47.8215 42.6159 47.8215 41.4141C47.8215 40.2122 48.7993 39.2344 50.0011 39.2344C51.203 39.2344 52.1808 40.2122 52.1808 41.4141C52.1808 42.6159 51.203 43.5938 50.0011 43.5938Z" fill="#52A7D8"></path>
  <path d="M16.0951 24.2189C13.5578 24.2189 11.4935 26.2831 11.4935 28.8204C11.4935 31.3577 13.5578 33.422 16.0951 33.422C18.6323 33.422 20.6966 31.3577 20.6966 28.8204C20.6966 26.2831 18.6323 24.2189 16.0951 24.2189ZM16.0951 31.0001C14.8932 31.0001 13.9154 30.0223 13.9154 28.8204C13.9154 27.6186 14.8932 26.6407 16.0951 26.6407C17.2969 26.6407 18.2747 27.6186 18.2747 28.8204C18.2747 30.0223 17.2969 31.0001 16.0951 31.0001Z" fill="#52A7D8"></path>
  <path d="M38.6988 24.2188C36.1615 24.2188 34.0972 26.2831 34.0972 28.8203C34.0972 31.3576 36.1615 33.4219 38.6988 33.4219C41.2361 33.4219 43.3003 31.3576 43.3003 28.8203C43.3003 26.2831 41.2361 24.2188 38.6988 24.2188ZM38.6988 31C37.4969 31 36.5191 30.0222 36.5191 28.8203C36.5191 27.6185 37.4969 26.6406 38.6988 26.6406C39.9006 26.6406 40.8785 27.6185 40.8785 28.8203C40.8785 30.0222 39.9006 31 38.6988 31Z" fill="#52A7D8"></path>
  <path d="M50.0011 24.2188C47.4639 24.2188 45.3996 26.2831 45.3996 28.8203C45.3996 31.3576 47.4639 33.4219 50.0011 33.4219C52.5384 33.4219 54.6027 31.3576 54.6027 28.8203C54.6027 26.2831 52.5384 24.2188 50.0011 24.2188ZM50.0011 31C48.7993 31 47.8215 30.0222 47.8215 28.8203C47.8215 27.6185 48.7993 26.6406 50.0011 26.6406C51.203 26.6406 52.1808 27.6185 52.1808 28.8203C52.1808 30.0222 51.203 31 50.0011 31Z" fill="#52A7D8"></path>
  <path d="M27.3967 24.2189C24.8594 24.2189 22.7951 26.2831 22.7951 28.8204C22.7951 31.3577 24.8594 33.422 27.3967 33.422C29.934 33.422 31.9983 31.3577 31.9983 28.8204C31.9983 26.2831 29.934 24.2189 27.3967 24.2189ZM27.3967 31.0001C26.1949 31.0001 25.217 30.0223 25.217 28.8204C25.217 27.6186 26.1949 26.6407 27.3967 26.6407C28.5986 26.6407 29.5764 27.6186 29.5764 28.8204C29.5764 30.0223 28.5986 31.0001 27.3967 31.0001Z" fill="#52A7D8"></path>
  <path d="M15.2703 42.5798C14.7973 42.107 14.0308 42.107 13.5577 42.5798L9.61417 46.5235L8.26651 45.1758C7.79352 44.703 7.027 44.703 6.55389 45.1758C6.08101 45.6487 6.08101 46.4155 6.55389 46.8885L8.75791 49.0922C8.98508 49.3193 9.29302 49.4469 9.61417 49.4469C9.93531 49.4469 10.2432 49.3193 10.4704 49.0922L15.2703 44.2923C15.7432 43.8195 15.7432 43.0527 15.2703 42.5798Z" fill="#52A7D8"></path>
</svg>
