<svg width="22" height="24" viewBox="0 0 22 24" fill="none" xmlns="http://www.w3.org/2000/svg">
<g clip-path="url(#clip0_126_141)">
<path d="M21.2864 11.5C21.54 11.5 21.7393 11.72 21.7393 12C21.7393 12.28 21.54 12.5 21.2864 12.5H20.8335V11.5H21.2864Z" fill="white"/>
<path d="M11.3223 11.5H20.8331V12.5H11.3223V11.5Z" fill="white"/>
<path d="M19.4747 24H10.8696C11.1233 24 11.3225 23.78 11.3225 23.5V23H19.4747C20.2265 23 20.8334 22.33 20.8334 21.5V12.5H21.2863C21.5399 12.5 21.7392 12.28 21.7392 12V21.5C21.7392 22.88 20.7247 24 19.4747 24Z" fill="white"/>
<path d="M21.7392 2.5V12C21.7392 11.72 21.5399 11.5 21.2863 11.5H20.8334V2.5C20.8334 1.67 20.2265 1 19.4747 1H11.3225V0.5C11.3225 0.22 11.1233 0 10.8696 0H19.4747C20.7247 0 21.7392 1.12 21.7392 2.5Z" fill="white"/>
<path d="M18.1156 6C18.3693 6 18.5685 6.22 18.5685 6.5C18.5685 6.78 18.3693 7 18.1156 7H14.4924C14.2388 7 14.0396 6.78 14.0396 6.5C14.0396 6.22 14.2388 6 14.4924 6H18.1156Z" fill="white"/>
<path d="M18.1156 16C18.3693 16 18.5685 16.22 18.5685 16.5C18.5685 16.78 18.3693 17 18.1156 17H14.4924C14.2388 17 14.0396 16.78 14.0396 16.5C14.0396 16.22 14.2388 16 14.4924 16H18.1156Z" fill="white"/>
<path d="M18.1156 19C18.3693 19 18.5685 19.22 18.5685 19.5C18.5685 19.78 18.3693 20 18.1156 20H14.4924C14.2388 20 14.0396 19.78 14.0396 19.5C14.0396 19.22 14.2388 19 14.4924 19H18.1156Z" fill="white"/>
<path d="M11.3223 23V23.5C11.3223 23.78 11.123 24 10.8694 24C10.6158 24 10.4165 23.78 10.4165 23.5V23H11.3223Z" fill="white"/>
<path d="M10.4165 12.5H11.3223V23H10.4165V12.5Z" fill="white"/>
<path d="M10.4165 11.5H11.3223V12.5H10.4165V11.5Z" fill="white"/>
<path d="M10.4165 1H11.3223V11.5H10.4165V1Z" fill="white"/>
<path d="M11.3223 0.5V1H10.4165V0.5C10.4165 0.22 10.6158 0 10.8694 0C11.123 0 11.3223 0.22 11.3223 0.5Z" fill="white"/>
<path d="M0.905762 11.5H10.4166V12.5H0.905762V11.5Z" fill="white"/>
<path d="M7.24639 6C7.50001 6 7.69929 6.22 7.69929 6.5C7.69929 6.78 7.50001 7 7.24639 7H5.8877V6H7.24639Z" fill="white"/>
<path d="M7.1103 19.15C7.29146 19.34 7.29146 19.66 7.1103 19.85C7.02878 19.95 6.91102 20 6.79327 20C6.67552 20 6.55776 19.95 6.47624 19.85L5.43457 18.7L6.06863 18L7.1103 19.15Z" fill="white"/>
<path d="M6.47624 16.15C6.64834 15.95 6.9382 15.95 7.1103 16.15C7.29146 16.34 7.29146 16.66 7.1103 16.85L6.06863 18L5.43457 17.3L6.47624 16.15Z" fill="white"/>
<path d="M4.79785 17.999L5.43194 17.299L6.06603 17.999L5.43194 18.6991L4.79785 17.999Z" fill="white"/>
<path d="M5.88773 7V8.5C5.88773 8.78 5.68846 9 5.43483 9C5.18121 9 4.98193 8.78 4.98193 8.5V7H5.88773Z" fill="white"/>
<path d="M4.98193 6H5.88773V7H4.98193V6Z" fill="white"/>
<path d="M5.88773 4.5V6H4.98193V4.5C4.98193 4.22 5.18121 4 5.43483 4C5.68846 4 5.88773 4.22 5.88773 4.5Z" fill="white"/>
<path d="M5.43464 17.3L4.80058 18L3.75892 16.85C3.57776 16.66 3.57776 16.34 3.75892 16.15C3.93102 15.95 4.22087 15.95 4.39297 16.15L5.43464 17.3Z" fill="white"/>
<path d="M4.982 6V7H3.62331C3.36969 7 3.17041 6.78 3.17041 6.5C3.17041 6.22 3.36969 6 3.62331 6H4.982Z" fill="white"/>
<path d="M4.39297 19.85C4.31145 19.95 4.1937 20 4.07595 20C3.95819 20 3.84044 19.95 3.75892 19.85C3.57776 19.66 3.57776 19.34 3.75892 19.15L4.80058 18L5.43464 18.7L4.39297 19.85Z" fill="white"/>
<path d="M0.905797 11.5V12.5H0.452899C0.199275 12.5 0 12.28 0 12C0 11.72 0.199275 11.5 0.452899 11.5H0.905797Z" fill="white"/>
<path d="M0 2.5C0 1.12 1.01449 0 2.26449 0H10.8696C10.6159 0 10.4167 0.22 10.4167 0.5V1H2.26449C1.51268 1 0.905797 1.67 0.905797 2.5V11.5H0.452899C0.199275 11.5 0 11.72 0 12V2.5Z" fill="white"/>
<path d="M0.905797 21.5C0.905797 22.33 1.51268 23 2.26449 23H10.4167V23.5C10.4167 23.78 10.6159 24 10.8696 24H2.26449C1.01449 24 0 22.88 0 21.5V12C0 12.28 0.199275 12.5 0.452899 12.5H0.905797V21.5Z" fill="white"/>
</g>
<defs>
<clipPath id="clip0_126_141">
<rect width="21.7391" height="24" fill="white"/>
</clipPath>
</defs>
</svg>
