<svg width="33" height="33" viewBox="0 0 33 33" fill="none" xmlns="http://www.w3.org/2000/svg">
<circle cx="16.5" cy="16.5" r="16.5" fill="#86B92D"/>
<path d="M17.6366 14.6236H15.9788V12.9658C15.9788 12.5858 15.6728 12.2798 15.2928 12.2798C14.9128 12.2798 14.6068 12.5858 14.6068 12.9658V14.6236H12.9489C12.569 14.6236 12.2629 14.9296 12.2629 15.3096C12.2629 15.6896 12.569 15.9956 12.9489 15.9956H14.6068V17.6535C14.6068 18.0335 14.9128 18.3395 15.2928 18.3395C15.6728 18.3395 15.9788 18.0335 15.9788 17.6535V15.9956H17.6366C18.0166 15.9956 18.3227 15.6896 18.3227 15.3096C18.3227 14.9296 18.0133 14.6236 17.6366 14.6236Z" fill="white"/>
<path d="M15.2961 20.9624C12.1721 20.9624 9.63997 18.4336 9.63997 15.3096C9.63997 12.1856 12.1721 9.65676 15.2961 9.65676C18.4202 9.65676 20.949 12.1889 20.949 15.3096C20.949 18.4302 18.4168 20.9624 15.2961 20.9624ZM24.537 23.5854L20.727 19.7753C21.7258 18.5614 22.3277 17.0044 22.3277 15.3096C22.3277 11.4256 19.1802 8.27466 15.2928 8.27466C11.4054 8.27466 8.26123 11.4256 8.26123 15.3096C8.26123 19.1936 11.4088 22.3445 15.2961 22.3445C16.991 22.3445 18.5446 21.7459 19.7585 20.7472L23.5686 24.5572C23.7434 24.7354 24.2781 24.8229 24.5404 24.5572C24.8061 24.2882 24.8061 23.8544 24.537 23.5854Z" fill="white"/>
</svg>
