<svg width="53" height="62" viewBox="0 0 53 62" fill="none" xmlns="http://www.w3.org/2000/svg">
<path d="M51.9145 10.706C43.384 8.36868 34.8035 4.72921 27.1004 0.181186C26.6912 -0.0603954 26.1834 -0.0603954 25.7744 0.181186C17.8491 4.85987 9.73216 8.30244 0.959545 10.706C0.392827 10.8611 0 11.3763 0 11.9639V25.2898C0 39.0125 6.33064 48.0959 11.6416 53.2994C17.3591 58.9018 24.0193 62 26.4374 62C28.8552 62 35.5154 58.9018 41.2329 53.2994C46.5437 48.0961 52.874 39.0126 52.874 25.2898V11.9638C52.874 11.3763 52.4812 10.8611 51.9145 10.706ZM50.2657 25.2897C50.2657 38.1066 44.361 46.5825 39.4073 51.4362C33.7848 56.9453 27.7734 59.3914 26.4374 59.3914C25.1013 59.3914 19.0895 56.9453 13.4669 51.4362C8.51335 46.5824 2.60847 38.1066 2.60847 25.2897V12.9539C10.9976 10.572 18.8103 7.24784 26.4376 2.81545C33.8744 7.13026 42.077 10.6197 50.2657 12.9534V25.2897Z" fill="#52A7D8"/>
<path d="M14.8771 12.808C14.6131 12.1378 13.8559 11.8085 13.1856 12.0726C10.8557 12.9906 8.46435 13.8356 6.07796 14.5842C5.53412 14.755 5.16406 15.2587 5.16406 15.8286V20.865C5.16406 21.5852 5.7481 22.1692 6.46824 22.1692C7.18839 22.1692 7.77242 21.5852 7.77242 20.865V16.7817C9.91324 16.089 12.0518 15.3229 14.1417 14.4993C14.812 14.2355 15.1412 13.4783 14.8771 12.808Z" fill="#52A7D8"/>
<path d="M17.3548 13.055C17.5297 13.055 17.7074 13.0197 17.8778 12.9454L17.9017 12.935C18.5616 12.6458 18.8588 11.8777 18.5696 11.2181C18.2802 10.5583 17.5077 10.2598 16.8486 10.5487L16.8275 10.5578C16.1673 10.8461 15.8692 11.6136 16.1575 12.2735C16.3715 12.7635 16.8516 13.055 17.3548 13.055Z" fill="#52A7D8"/>
<path d="M41.976 42.0533C41.3733 41.6594 40.5651 41.8288 40.1707 42.4317C39.096 44.0767 37.8352 45.6519 36.4228 47.1131C35.2612 48.3146 34.0026 49.4345 32.6818 50.4414C32.1092 50.878 31.999 51.6964 32.4355 52.2693C32.6923 52.6058 33.0807 52.7828 33.4735 52.7828C33.7494 52.7828 34.0273 52.6958 34.2634 52.5156C35.6881 51.4293 37.0455 50.2216 38.2979 48.9261C39.825 47.3466 41.1897 45.6416 42.3544 43.8585C42.7486 43.2554 42.5789 42.4472 41.976 42.0533Z" fill="#52A7D8"/>
<path d="M29.6529 52.4874L29.5781 52.5315C28.9548 52.8925 28.7418 53.6903 29.1027 54.3135C29.3445 54.7313 29.7822 54.9645 30.2326 54.9645C30.4542 54.9645 30.6792 54.908 30.8847 54.7887L30.971 54.738C31.5926 54.374 31.8013 53.5751 31.4373 52.9535C31.0731 52.3322 30.2741 52.1238 29.6529 52.4874Z" fill="#52A7D8"/>
<path d="M17.5473 28.338C16.7465 27.5371 15.6815 27.0963 14.5488 27.0963C13.4161 27.0963 12.3509 27.5372 11.5498 28.338C9.89649 29.9916 9.89649 32.6823 11.5498 34.3359L19.2509 42.0367C20.0518 42.8374 21.1168 43.2783 22.2496 43.2783C23.3825 43.2783 24.4475 42.8374 25.2485 42.0364L41.325 25.9598C42.9782 24.3058 42.9782 21.6154 41.3248 19.9624C40.5239 19.1615 39.4589 18.7207 38.3259 18.7207C37.1931 18.7207 36.1281 19.1616 35.327 19.9624L22.2495 33.0399L17.5473 28.338ZM37.1715 21.8069C37.4797 21.4987 37.8898 21.3291 38.326 21.3291C38.7624 21.3291 39.1722 21.4987 39.4807 21.8069C40.117 22.4432 40.117 23.4791 39.4804 24.1157L23.4041 40.1921C23.0959 40.5003 22.6858 40.6699 22.2496 40.6699C21.8134 40.6699 21.4033 40.5003 21.095 40.1921L13.3942 32.4915C12.7576 31.8549 12.7576 30.8191 13.3939 30.1827C13.7022 29.8745 14.1124 29.7046 14.5487 29.7046C14.985 29.7046 15.3949 29.8743 15.7031 30.1825L21.3273 35.8068C21.572 36.0513 21.9035 36.1887 22.2495 36.1887C22.5955 36.1887 22.927 36.0514 23.1715 35.8068L37.1715 21.8069Z" fill="#52A7D8"/>
</svg>
