<svg width="26" height="25" viewBox="0 0 26 25" fill="none" xmlns="http://www.w3.org/2000/svg">
<path d="M25.1309 12.5C25.1309 19.4036 19.5344 25 12.6309 25C5.7273 25 0.130859 19.4036 0.130859 12.5C0.130859 5.59644 5.7273 0 12.6309 0C19.5344 0 25.1309 5.59644 25.1309 12.5Z" fill="url(#paint0_linear_121_479)"/>
<path d="M6.82727 12.287L9.59978 13.3218L10.6729 16.773C10.7416 16.994 11.0119 17.0757 11.1913 16.929L12.7367 15.6691C12.8987 15.5371 13.1295 15.5306 13.2987 15.6535L16.0862 17.6772C16.2781 17.8167 16.55 17.7115 16.5981 17.4796L18.6401 7.65751C18.6926 7.40419 18.4437 7.19286 18.2025 7.28615L6.82403 11.6756C6.54323 11.7839 6.54568 12.1815 6.82727 12.287ZM10.5 12.7709L15.9185 9.43366C16.0159 9.37386 16.1161 9.50553 16.0324 9.5831L11.5606 13.7399C11.4034 13.8862 11.302 14.082 11.2733 14.2946L11.121 15.4234C11.1008 15.5742 10.8891 15.5891 10.8475 15.4432L10.2616 13.3847C10.1945 13.1499 10.2923 12.8991 10.5 12.7709Z" fill="white"/>
<defs>
<linearGradient id="paint0_linear_121_479" x1="12.6309" y1="0" x2="12.6309" y2="25" gradientUnits="userSpaceOnUse">
<stop stop-color="#35AADA"/>
<stop offset="1" stop-color="#1D91C2"/>
</linearGradient>
</defs>
</svg>
